<svg xmlns="http://www.w3.org/2000/svg" width="215.4" height="85.625" viewBox="0 0 215.4 85.625"><g transform="translate(-355.5 347.426)"><g transform="translate(322 -371)"><path d="M138.7,44,145,24.6a.791.791,0,1,0-1.5-.5L137,44Z" fill="#fff"/><path d="M122.4,89l-6.2,19.1a.825.825,0,0,0,.5,1h.2a.838.838,0,0,0,.8-.6L124,89Z" fill="#fff"/><path d="M33.5,38.4c0-3.2,2-5.3,4.8-5.3s4.8,2.1,4.8,5.3v13h.1c2-2.5,5.7-3.3,8.7-3.3C59.4,48.1,65,52.9,65,61V79.3c0,3.2-2,5.3-4.8,5.3s-4.8-2.1-4.8-5.3V62.6c0-4.4-2.8-6.6-6.2-6.6-3.9,0-6.1,2.9-6.1,6.6V79.3c0,3.2-2,5.3-4.8,5.3s-4.8-2.1-4.8-5.3V38.4Z" fill="#fff"/><path d="M104.6,66.6c0,10-6.8,18.4-17.1,18.4S70.4,76.6,70.4,66.6c0-9.7,7-18.5,17.1-18.5C97.5,48.1,104.6,56.9,104.6,66.6Zm-24.7,0c0,4.6,2.4,9.6,7.6,9.6s7.6-5,7.6-9.6-2.3-9.8-7.6-9.8S79.9,62,79.9,66.6Z" fill="#fff"/><path d="M107.6,56.8a12.3,12.3,0,0,1-1-4.5c0-2.1,2-3.8,4.8-3.8a4.509,4.509,0,0,1,4.5,3.8l5.5,18.2h.1l5.6-17.8c.7-2.6,2.1-4.2,4.8-4.2,2.8,0,4.1,1.6,4.8,4.2l5.6,17.8h.1l5.5-18.2a4.509,4.509,0,0,1,4.5-3.8c2.8,0,4.8,1.7,4.8,4.6a15.675,15.675,0,0,1-.9,3.6l-8.2,23c-1,2.8-2.7,4.8-5.8,4.8-2.9,0-4.6-1.7-5.5-4.4L132,64.7h-.1L127,80.1c-.9,2.8-2.6,4.4-5.5,4.4-3.1,0-4.8-2.1-5.8-4.8Z" fill="#fff"/><path d="M169.5,69.7c.7,4.7,4.6,6.9,9,6.9,4.9,0,8.3-3.8,10.8-3.8a4.224,4.224,0,0,1,3.9,4.1c0,4.1-8.5,8.1-15.6,8.1-10.7,0-17.9-7.8-17.9-18.4,0-9.7,7-18.5,17.1-18.5,10.3,0,17.2,9.4,17.2,17.4,0,2.9-1.3,4.2-4.2,4.2H169.5Zm15-6.4c-.5-4.2-3.2-7.3-7.6-7.3-4.2,0-7.1,3.3-7.6,7.3Z" fill="#fff"/><path d="M218.9,59.2c-1.8,0-5.4-2.8-8.6-2.8-1.7,0-3.3.8-3.3,2.7,0,4.4,16.6,3.8,16.6,14.7,0,6.4-5.4,11.2-13.6,11.2-5.4,0-13.3-3.1-13.3-7.4,0-1.5,1.5-4.2,4.1-4.2,3.7,0,5.4,3.3,9.9,3.3,2.9,0,3.8-.9,3.8-2.7,0-4.4-16.6-3.7-16.6-14.7,0-6.6,5.4-11.1,12.9-11.1,4.7,0,11.9,2.2,11.9,6.9A3.929,3.929,0,0,1,218.9,59.2Z" fill="#fff"/><path d="M232,57.2h-2.1a3.888,3.888,0,0,1-4.2-4.2,4.1,4.1,0,0,1,4.2-4.2H232V43.1c0-3.2,2-5.3,4.8-5.3s4.8,2.1,4.8,5.3v5.7h2.7c2.5,0,4.6,1.1,4.6,4.2,0,3-2.1,4.2-4.6,4.2h-2.7v22c0,3.2-2,5.3-4.8,5.3s-4.8-2.1-4.8-5.3Z" fill="#fff"/></g><g transform="translate(322 -371)"><path d="M144.6,97.8a2.6,2.6,0,1,0-5.2,0v6a.9.9,0,1,1-1.8,0V89.7a.9.9,0,1,1,1.8,0V95h0a4.024,4.024,0,0,1,3.1-1.5c1.7,0,3.8,1.1,3.8,4.2v6.1a.9.9,0,1,1-1.8,0v-6Z" fill="#fff"/><path d="M153.8,93.5c3.1,0,4.9,2.7,4.9,5.7s-1.7,5.7-4.9,5.7c-3.1,0-4.9-2.7-4.9-5.7S150.7,93.5,153.8,93.5Zm0,9.8c2.2,0,3-2.2,3-4.1s-.8-4.1-3-4.1-3,2.2-3,4.1S151.6,103.3,153.8,103.3Z" fill="#fff"/><path d="M170.2,103.9c0,3.3-2,5.3-5,5.3-1.9,0-4.2-1.1-4.2-2a.809.809,0,0,1,.8-.9c.8,0,1.6,1.3,3.6,1.3,2.3,0,3-1.8,3-3.4v-1h0a3.192,3.192,0,0,1-2.8,1.6c-3.1,0-4.9-2.7-4.9-5.7s1.7-5.7,4.9-5.7a3.637,3.637,0,0,1,2.8,1.4h0v-.5a.919.919,0,0,1,1-.9.833.833,0,0,1,.9.9v9.6Zm-4.7-.6c2.2,0,3-2.2,3-4.1s-.8-4.1-3-4.1-3,2.2-3,4.1S163.3,103.3,165.5,103.3Z" fill="#fff"/><path d="M174.4,99.9a3.174,3.174,0,0,0,3.3,3.4c2.4,0,3.1-1.5,3.7-1.5a.775.775,0,0,1,.7.8c0,.9-2.3,2.3-4.4,2.3-3.5,0-5.1-2.7-5.1-5.7s1.9-5.7,5-5.7c3,0,4.8,2.7,4.8,5.4,0,.6-.2,1-1,1h-7Zm6.1-1.4c0-1.6-.9-3.4-2.9-3.4-2.3-.1-3.1,1.7-3.1,3.4Z" fill="#fff"/><path d="M188.1,93.5c1.5,0,3.7.8,3.7,2a.713.713,0,0,1-.8.7c-.8,0-1.1-1.1-2.8-1.1-1,0-1.9.5-1.9,1.4,0,1.9,5.9,1.7,5.9,4.9,0,2.3-2,3.4-4,3.4-2.3,0-4.2-1.2-4.2-2.1a.775.775,0,0,1,.7-.8c.8,0,1.5,1.4,3.5,1.4,1.3,0,2.1-.7,2.1-1.5,0-2.2-5.9-2-5.9-5.1C184.4,94.6,186.3,93.5,188.1,93.5Z" fill="#fff"/><path d="M198.9,93.5c1.9,0,3,.6,3,1.4a.773.773,0,0,1-.7.8c-.7,0-1-.6-2.2-.6-2.3,0-3.2,2.2-3.2,4.1s.9,4.1,3.2,4.1c1.3,0,1.6-.6,2.2-.6a.713.713,0,0,1,.7.8c0,.7-1,1.4-2.9,1.4-3.4,0-5-2.7-5-5.7S195.5,93.5,198.9,93.5Z" fill="#fff"/><path d="M211.1,97.8a2.6,2.6,0,1,0-5.2,0v6a.9.9,0,1,1-1.8,0V89.7a.9.9,0,1,1,1.8,0V95h0a4.024,4.024,0,0,1,3.1-1.5c1.7,0,3.8,1.1,3.8,4.2v6.1a.9.9,0,1,1-1.8,0v-6Z" fill="#fff"/><path d="M220.3,93.5c3.1,0,4.9,2.7,4.9,5.7s-1.7,5.7-4.9,5.7c-3.1,0-4.9-2.7-4.9-5.7S217.2,93.5,220.3,93.5Zm0,9.8c2.2,0,3-2.2,3-4.1s-.8-4.1-3-4.1-3,2.2-3,4.1S218.1,103.3,220.3,103.3Z" fill="#fff"/><path d="M232,93.5c3.1,0,4.9,2.7,4.9,5.7s-1.7,5.7-4.9,5.7c-3.1,0-4.9-2.7-4.9-5.7S228.9,93.5,232,93.5Zm0,9.8c2.2,0,3-2.2,3-4.1s-.8-4.1-3-4.1-3,2.2-3,4.1S229.8,103.3,232,103.3Z" fill="#fff"/><path d="M241.2,103.9a.9.9,0,1,1-1.8,0V89.7a.9.9,0,1,1,1.8,0Z" fill="#fff"/></g></g></svg>