<svg xmlns="http://www.w3.org/2000/svg" width="79.982" height="77.763" viewBox="0 0 79.982 77.763"><g transform="translate(-73.44 -222.574)"><path d="M122.955,295.568c-.452,5.607,7.235.965,7.235.965,25.595-13.868,20.779-38.973,20.779-38.973-5.313-32.356-35.34-32.966-35.34-32.966-33.192-.882-39.312,29.6-39.312,29.6-5.894,31.157,20.711,42.583,20.711,42.583s3.678,1.538,3.618-3.467" fill="none" stroke="#864a15" stroke-miterlimit="10" stroke-width="4"/><path d="M311.693,325.814a7.129,7.129,0,0,1-4.6-4.651c-.9-3.928,1.132-21.32,1.132-21.32s.053-.593.25-.015l.325,17.882,1.263-.022.789-17.876s.1-.849.3.005l.883,17.823,1.251-.026.269-17.866s.066-.7.246-.016l1.458,17.81,1.242-.006-.287-17.84s0-.618.191-.035c0,0,1.234,7.318,2.019,16.9,0,0,1.4,7.443-4.537,9.18l1.712,32.238-4.386.334Z" transform="translate(-190.411 -61.58)" fill="#bc4b4b"/><path d="M194.719,302.709s-2.447-7.778-6.443-8.351-6.856,5.693-6.856,5.693-3.383,6.841-1.81,12.415a8.2,8.2,0,0,0,6.438,6.168l-2.211,32.791a1,1,0,0,1,.034.208v.008q0,.047,0,.093c0,.005,0,.011,0,.016s0,.01,0,.016a1,1,0,0,1,.024.123v.011a1.023,1.023,0,0,1,0,.246l0,.014a.99.99,0,0,1-.023.121h0a.975.975,0,0,1-.01.175l4.057.275c.074-.32.156-.639.221-.96,0-.281.042-.561.071-.862l0-1.459c-.006-.171-.008-.342,0-.513l-.07-30.2a9.349,9.349,0,0,0,7.1-6.187C196.653,308.451,194.719,302.709,194.719,302.709Z" transform="translate(-85.356 -57.393)" fill="#48914d"/></g></svg>